<?xml version="1.0"?>
<svg xmlns="http://www.w3.org/2000/svg" xmlns:lc="http://www.librecad.org" xmlns:xlink="http://www.w3.org/1999/xlink" width="79.9869876mm" height="98.933mm" viewBox="0 0 79.9869876 98.933">
    <g lc:layername="0" lc:is_locked="false" lc:is_construction="false" fill="none" stroke="black" stroke-width="1">
        <path d="M79.9758116,20.6248 L79.9758116,1.524 "/>
        <path d="M40.3996906,0.05842 L78.3679916,0.05842 "/>
        <path d="M0.0009906,97.0609946 L0.0009906,2.0370038 "/>
        <path d="M79.9758116,20.51812 L79.9758116,20.6248 L79.9758116,96.93148 "/>
        <path d="M2.0892516,0.05842 L40.2070316,0.05842 "/>
        <path d="M77.9869916,98.933 L1.9879818,98.933 "/>
        <path d="M61.4515916,4.5212 L75.4723916,4.5212 L75.4723916,18.542 L61.4515916,18.542 L61.4515916,4.5212 L61.4515916,4.5212 Z "/>
        <path d="M42.4269916,4.5212 L56.4477916,4.5212 L56.4477916,18.542 L42.4269916,18.542 L42.4269916,4.5212 L42.4269916,4.5212 Z "/>
        <path d="M4.4031916,4.5212 L18.4239916,4.5212 L18.4239916,18.542 L4.4031916,18.542 L4.4031916,4.5212 L4.4031916,4.5212 Z "/>
        <path d="M4.4031916,23.5458 L18.4239916,23.5458 L18.4239916,37.5412 L4.4031916,37.5412 L4.4031916,23.5458 L4.4031916,23.5458 Z "/>
        <path d="M4.4031916,42.545 L18.4239916,42.545 L18.4239916,56.5658 L4.4031916,56.5658 L4.4031916,42.545 L4.4031916,42.545 Z "/>
        <path d="M4.4031916,61.5696 L18.4239916,61.5696 L18.4239916,75.5904 L4.4031916,75.5904 L4.4031916,61.5696 L4.4031916,61.5696 Z "/>
        <path d="M4.4031916,80.5942 L18.4239916,80.5942 L18.4239916,94.615 L4.4031916,94.615 L4.4031916,80.5942 L4.4031916,80.5942 Z "/>
        <path d="M23.4277916,4.5212 L37.4231916,4.5212 L37.4231916,18.542 L23.4277916,18.542 L23.4277916,4.5212 L23.4277916,4.5212 Z "/>
        <path d="M23.4277916,23.5458 L37.4231916,23.5458 L37.4231916,37.5412 L23.4277916,37.5412 L23.4277916,23.5458 L23.4277916,23.5458 Z "/>
        <path d="M23.4277916,42.545 L37.4231916,42.545 L37.4231916,56.5658 L23.4277916,56.5658 L23.4277916,42.545 L23.4277916,42.545 Z "/>
        <path d="M23.4277916,61.5696 L37.4231916,61.5696 L37.4231916,75.5904 L23.4277916,75.5904 L23.4277916,61.5696 L23.4277916,61.5696 Z "/>
        <path d="M23.4277916,80.5942 L37.4231916,80.5942 L37.4231916,94.615 L23.4277916,94.615 L23.4277916,80.5942 L23.4277916,80.5942 Z "/>
        <path d="M42.4269916,23.5458 L56.4477916,23.5458 L56.4477916,37.5412 L42.4269916,37.5412 L42.4269916,23.5458 L42.4269916,23.5458 Z "/>
        <path d="M42.4269916,42.545 L56.4477916,42.545 L56.4477916,56.5658 L42.4269916,56.5658 L42.4269916,42.545 L42.4269916,42.545 Z "/>
        <path d="M42.4269916,61.5696 L56.4477916,61.5696 L56.4477916,75.5904 L42.4269916,75.5904 L42.4269916,61.5696 L42.4269916,61.5696 Z "/>
        <path d="M42.4269916,80.5942 L56.4477916,80.5942 L56.4477916,94.615 L42.4269916,94.615 L42.4269916,80.5942 L42.4269916,80.5942 Z "/>
        <path d="M61.4515916,23.5458 L75.4723916,23.5458 L75.4723916,37.5412 L61.4515916,37.5412 L61.4515916,23.5458 L61.4515916,23.5458 Z "/>
        <path d="M61.4515916,42.545 L75.4723916,42.545 L75.4723916,56.5658 L61.4515916,56.5658 L61.4515916,42.545 L61.4515916,42.545 Z "/>
        <path d="M61.4515916,61.5696 L75.4723916,61.5696 L75.4723916,75.5904 L61.4515916,75.5904 L61.4515916,61.5696 L61.4515916,61.5696 Z "/>
        <path d="M61.4515916,80.5942 L75.4723916,80.5942 L75.4723916,94.615 L61.4515916,94.615 L61.4515916,80.5942 L61.4515916,80.5942 Z "/>
        <path d="M40.3996906,0.05842 L40.2070316,0.05842 "/>
        <path d="M0.0009906,96.933004 A2.0000214,2.0000214 0 0,0 2.001012,98.933 "/>
        <path d="M77.9869916,98.933 A1.999996,1.999996 0 0,0 79.9869876,96.933004 "/>
        <path d="M79.9869876,1.999996 A2.0000214,2.0000214 0 0,0 77.9869662,0 "/>
        <path d="M2.0000214,0.0590042 A2.0000214,2.0000214 0 0,0 0,2.0590002 "/>
        <circle cx="39.987982" cy="59.1369912" r="2.0999958"/>
        <circle cx="2.5881076" cy="59.137042" r="1.999996"/>
        <circle cx="77.0880856" cy="58.636916" r="1.999996"/>
        <circle cx="2.5881076" cy="96.136968" r="1.999996"/>
        <circle cx="77.0880856" cy="96.136968" r="1.999996"/>
        <circle cx="77.0880856" cy="2.637028" r="1.999996"/>
        <circle cx="39.9880836" cy="2.637028" r="1.999996"/>
    </g>
</svg>
